<svg width="25" height="24" viewBox="0 0 25 24" fill="none" xmlns="http://www.w3.org/2000/svg">
<path d="M15.6749 17.8037C15.466 17.9737 15.2145 18.0577 14.9581 18.0577C14.6258 18.0577 14.2888 17.9072 14.0609 17.6191L11.7539 14.7343C11.5925 14.5354 11.4975 14.2814 11.4975 14.0189V9.98061C11.4975 9.34309 12.0149 8.82663 12.6511 8.82663C13.2872 8.82663 13.8046 9.34309 13.8046 9.98061V13.6121L15.8601 16.1855C16.2636 16.6844 16.1829 17.4083 15.6749 17.8037ZM19.8191 7.91232L21.547 6.18155C21.998 5.73438 21.998 4.9929 21.547 4.54572C21.096 4.09286 20.3602 4.09286 19.9093 4.54572L18.1766 6.27649C18.1102 6.35482 18.0627 6.43553 18.0152 6.51908C16.8047 5.6537 15.3616 5.06223 13.8046 4.86902V3.05755H14.9581C15.5942 3.05755 16.1117 2.53824 16.1117 1.90357C16.1117 1.26604 15.5942 0.750001 14.9581 0.750001H10.344C9.70791 0.750001 9.19049 1.26604 9.19049 1.90357C9.19049 2.53824 9.70791 3.05755 10.344 3.05755H11.4975V4.86902C6.94988 5.43439 3.42285 9.31984 3.42285 14.0189C3.42285 19.1044 7.56223 23.25 12.6511 23.25C17.7399 23.25 21.884 19.1044 21.884 14.0189C21.884 11.7228 21.0391 9.63169 19.6577 8.01912C19.7004 7.98447 19.7716 7.96121 19.8191 7.91232Z" fill="#191748"/>
</svg>
