<svg width="24" height="24" viewBox="0 0 24 24" fill="none" xmlns="http://www.w3.org/2000/svg">
<g clip-path="url(#clip0_290_2749)">
<path d="M22.0009 8.16174V8.23427C22.0009 9.09501 22.0009 9.52538 21.7937 9.8775C21.5865 10.2296 21.2103 10.4386 20.4578 10.8566L19.6646 11.2974C20.2112 9.44924 20.3936 7.46354 20.4611 5.76537C20.4639 5.69256 20.4671 5.61885 20.4704 5.54437L20.4727 5.49219C21.1241 5.71836 21.4897 5.88698 21.7178 6.20348C22.001 6.59632 22.001 7.11813 22.0009 8.16174Z" fill="#F7CF1B"/>
<path d="M2.00098 8.16187V8.2344C2.00101 9.09514 2.00102 9.52551 2.20821 9.87763C2.4154 10.2297 2.79161 10.4387 3.54403 10.8567L4.33779 11.2977C3.79105 9.44954 3.60865 7.46375 3.54123 5.7655C3.53834 5.69269 3.53508 5.61898 3.53179 5.5445L3.52948 5.49219C2.87799 5.71843 2.51224 5.88705 2.28408 6.20361C2.00094 6.59645 2.00095 7.11826 2.00098 8.16187Z" fill="#F7CF1B"/>
<path fill-rule="evenodd" clip-rule="evenodd" d="M12.0026 2C13.7861 2 15.2555 2.15709 16.3795 2.34674C17.5183 2.53887 18.0876 2.63494 18.5633 3.22083C19.0391 3.80673 19.0139 4.43998 18.9636 5.70647C18.791 10.0545 17.8527 15.4853 12.7524 15.9657V19.5H14.1826C14.6593 19.5 15.0697 19.8365 15.1632 20.3039L15.3524 21.25H18.0024C18.4166 21.25 18.7524 21.5858 18.7524 22C18.7524 22.4142 18.4166 22.75 18.0024 22.75H6.00244C5.58823 22.75 5.25244 22.4142 5.25244 22C5.25244 21.5858 5.58823 21.25 6.00244 21.25H8.65244L8.84166 20.3039C8.93515 19.8365 9.34556 19.5 9.82224 19.5H11.2524V15.9657C6.1524 15.4851 5.21413 10.0544 5.04151 5.70647C4.99123 4.43998 4.96609 3.80673 5.44181 3.22083C5.91752 2.63494 6.48689 2.53887 7.62562 2.34674C8.74968 2.15709 10.219 2 12.0026 2ZM12.9548 6.19887L12.8565 6.02251C12.4765 5.34084 12.2865 5 12.0024 5C11.7183 5 11.5283 5.34084 11.1483 6.02251L11.05 6.19887C10.9421 6.39258 10.8881 6.48944 10.8039 6.55334C10.7197 6.61725 10.6149 6.64097 10.4052 6.68841L10.2143 6.73161C9.4764 6.89857 9.10745 6.98205 9.01967 7.26432C8.93189 7.54659 9.18341 7.84072 9.68647 8.42898L9.81662 8.58117C9.95957 8.74833 10.031 8.83191 10.0632 8.93532C10.0953 9.03872 10.0845 9.15023 10.0629 9.37327L10.0432 9.57632C9.9672 10.3612 9.92918 10.7536 10.1589 10.9281C10.3888 11.1025 10.7342 10.9435 11.4251 10.6254L11.6038 10.5431C11.8002 10.4527 11.8983 10.4075 12.0024 10.4075C12.1065 10.4075 12.2046 10.4527 12.401 10.5431L12.5797 10.6254C13.2706 10.9435 13.616 11.1025 13.8459 10.9281C14.0757 10.7536 14.0376 10.3612 13.9616 9.57632L13.9419 9.37327C13.9203 9.15023 13.9095 9.03872 13.9416 8.93532C13.9738 8.83191 14.0453 8.74833 14.1882 8.58117L14.3184 8.42898C14.8214 7.84072 15.073 7.54659 14.9852 7.26432C14.8974 6.98205 14.5284 6.89857 13.7905 6.73161L13.5996 6.68841C13.3899 6.64097 13.2851 6.61725 13.2009 6.55334C13.1167 6.48944 13.0627 6.39258 12.9548 6.19887Z" fill="#F7CF1B"/>
</g>
<defs>
<clipPath id="clip0_290_2749">
<rect width="24" height="24" fill="white"/>
</clipPath>
</defs>
</svg>
